<?xml version="1.0" encoding="UTF-8"?>
<svg xmlns="http://www.w3.org/2000/svg" version="1.1" viewBox="0 0 1920 1080">
  <defs>
    <style>
      .cls-1 {
        stroke-width: 20px;
      }

      .cls-1, .cls-2, .cls-3, .cls-4 {
        stroke: #000;
        stroke-linecap: round;
        stroke-linejoin: round;
      }

      .cls-2 {
        stroke-width: 30px;
      }

      .cls-3 {
        fill: none;
        stroke-width: 35px;
      }

      .cls-4 {
        stroke-width: 23px;
      }
    </style>
  </defs>
  <!-- Generator: Adobe Illustrator 28.7.1, SVG Export Plug-In . SVG Version: 1.2.0 Build 142)  -->
  <g>
    <g id="Layer_1">
      <path class="cls-3" d="M661.33,460"/>
      <path class="cls-3" d="M1252.72,742.21"/>
      <g>
        <path class="cls-3" d="M980.8,115.11c55.13-.48,131.84,2.57,231.13,92.45,125.43,113.53,118.6,272.31,117.33,293.33,12.03-4.22,31.21-9.32,55.11-8.89,26.08.47,46.51,7.31,58.67,12.44,15.77,79.02-11.79,158.11-71.11,202.67-58.34,43.82-124.72,37.2-141.06,35.1-26.93,39.87-60.11,83.62-100.72,128.46-53.74,59.34-107.33,106.07-154.67,142.22-51.53-47.94-107.43-105.68-163.56-174.22-51.03-62.32-93.24-122.57-128-177.78-68.59,13-137.8-12.51-177.78-65.78-48.39-64.48-31.01-139.09-28.44-149.33,15.01-5.91,42.09-14.3,76.44-12.44,41.09,2.22,71.06,17.92,85.33,26.67,1.44-28.91,10.28-137.48,97.78-231.11,89.82-96.11,184.65-113.27,243.54-113.78Z"/>
        <path class="cls-3" d="M488.37,454.67c33.07,19.95,76.59,51.08,119.11,97.78,35.7,39.2,60.06,77.71,76.44,108.44"/>
        <path class="cls-3" d="M639.49,460c7.87,4.55,51.83,30.99,65.78,87.11,14.96,60.21-16.5,106.86-21.33,113.78"/>
        <path class="cls-3" d="M1329.26,500.89c-15.43,4.65-61.92,20.85-92.44,67.56-51.51,78.82-8.28,169.1-5.95,173.76"/>
        <path class="cls-3" d="M1238.6,742.21c18.69-37.16,46.9-84.33,88.89-132.87,40.83-47.2,82.2-81.25,115.56-104.89"/>
      </g>
      <circle class="cls-3" cx="982.44" cy="450.25" r="230.88"/>
      <g>
        <polyline class="cls-2" points="842.88 442.08 982.44 308.08 1121.99 442.08"/>
        <g>
          <line class="cls-2" x1="876.66" y1="410.37" x2="876.66" y2="592.42"/>
          <line class="cls-2" x1="1088.22" y1="410.37" x2="1088.22" y2="591.53"/>
        </g>
        <circle class="cls-1" cx="983.76" cy="441.31" r="23.11"/>
      </g>
      <circle class="cls-4" cx="983.76" cy="808.44" r="11.56"/>
    </g>
  </g>
</svg>